<svg id="svg"
     version="1.1"
     xmlns="http://www.w3.org/2000/svg"
     xmlns:xlink="http://www.w3.org/1999/xlink"
     width="400"
     height="388.73239436619724"
     viewBox="0, 0, 400,388.73239436619724">
    <g id="svgg">
        <path id="path0"
              d="M63.850 5.548 C 35.070 14.984,14.026 37.550,5.842 67.752 L 4.101 74.178 3.904 191.236 C 3.700 312.248,3.721 313.390,6.266 323.340 C 14.127 354.080,36.434 376.690,66.914 384.813 C 73.316 386.520,327.310 386.520,333.712 384.813 C 364.191 376.690,386.499 354.080,394.360 323.340 C 396.905 313.390,396.926 312.248,396.722 191.236 L 396.525 74.178 394.784 67.752 C 386.564 37.418,365.008 14.443,336.274 5.393 L 331.078 3.756 200.124 3.780 L 69.171 3.804 63.850 5.548 M320.745 39.334 C 335.455 43.589,348.041 53.971,354.603 67.262 C 359.957 78.107,359.557 70.680,359.775 163.196 L 359.969 245.328 303.458 245.561 C 241.680 245.816,246.182 245.558,233.803 249.555 C 221.839 253.418,210.852 260.183,203.910 267.958 L 200.313 271.987 196.716 267.958 C 189.774 260.183,178.787 253.418,166.823 249.555 C 154.444 245.558,158.946 245.816,97.167 245.561 L 40.657 245.328 40.851 163.196 C 41.069 70.680,40.669 78.107,46.023 67.262 C 53.657 51.799,68.239 41.227,86.385 37.998 C 87.246 37.845,139.218 37.761,201.878 37.812 L 315.806 37.905 320.745 39.334 M249.332 63.280 C 247.333 65.032,243.584 67.880,241.002 69.609 C 238.419 71.338,236.307 73.059,236.307 73.432 C 236.307 73.806,242.504 79.057,250.078 85.100 C 265.926 97.745,266.986 99.081,266.966 106.416 C 266.940 115.715,263.891 119.124,246.287 129.537 C 239.076 133.802,231.205 138.489,228.795 139.953 C 220.310 145.106,174.943 171.687,173.511 172.344 C 171.877 173.093,171.801 172.652,174.957 180.807 C 176.201 184.023,177.133 186.905,177.029 187.211 C 176.924 187.517,171.775 184.745,165.587 181.051 C 154.382 174.363,154.325 174.318,152.004 170.266 C 136.206 142.683,100.630 136.651,78.013 157.720 C 58.725 175.688,58.493 208.282,77.528 225.847 C 101.874 248.315,141.547 239.481,153.621 208.903 C 155.727 203.570,157.603 205.457,135.630 190.810 C 108.440 172.683,106.040 172.053,98.019 180.931 C 83.540 196.957,106.751 217.162,122.688 202.407 L 126.353 199.014 129.686 201.026 C 131.520 202.132,133.123 203.114,133.248 203.207 C 134.650 204.253,125.742 212.965,121.067 215.121 C 94.537 227.355,71.364 192.115,92.891 172.272 C 104.135 161.908,112.918 162.821,133.537 176.496 C 151.678 188.527,174.725 203.125,179.118 205.366 C 182.619 207.152,232.658 207.257,231.914 205.477 C 224.826 188.530,230.867 169.426,248.742 152.265 C 265.471 136.205,288.124 129.481,309.774 134.149 C 316.185 135.532,316.004 135.719,314.660 129.078 C 311.411 113.030,296.831 95.141,266.195 69.614 C 253.131 58.729,254.107 59.096,249.332 63.280 M56.338 85.078 C 57.199 85.769,63.537 90.197,70.423 94.918 C 77.308 99.638,90.970 109.163,100.782 116.083 C 110.595 123.004,127.778 135.080,138.967 142.920 C 150.156 150.760,161.365 158.631,163.875 160.412 C 168.106 163.415,168.538 163.586,169.821 162.763 C 171.278 161.829,193.462 148.729,230.047 127.197 C 253.011 113.682,256.025 111.748,256.025 110.532 C 256.025 108.845,235.228 97.709,228.963 96.041 C 223.125 94.487,192.573 94.792,187.617 96.454 C 180.595 98.809,175.284 103.146,167.945 112.520 C 163.201 118.580,164.360 118.325,149.922 116.477 C 144.757 115.816,137.357 114.923,133.475 114.492 C 125.150 113.568,126.321 114.736,121.428 102.478 C 119.257 97.042,117.257 92.455,116.982 92.285 C 116.707 92.115,109.780 91.139,101.590 90.116 C 93.399 89.093,85.994 88.122,85.133 87.958 C 84.272 87.793,78.052 86.952,71.310 86.088 C 64.568 85.225,58.089 84.361,56.913 84.169 L 54.773 83.821 56.338 85.078 M284.664 145.618 C 283.015 146.110,284.080 150.170,289.513 164.106 C 289.790 164.816,291.245 165.369,294.099 165.849 C 326.126 171.237,322.558 217.745,290.141 217.437 C 269.034 217.237,256.118 189.007,270.815 175.199 L 272.281 173.822 273.838 177.344 C 276.061 182.369,276.246 183.531,275.155 185.623 C 268.933 197.555,283.320 212.039,296.497 207.109 C 310.931 201.708,311.016 180.111,296.619 175.798 C 293.264 174.792,293.199 175.087,295.358 181.524 L 297.269 187.221 292.802 187.038 L 288.336 186.854 284.042 176.213 C 281.681 170.360,278.321 161.839,276.576 157.277 C 272.871 147.593,273.251 147.787,266.328 152.050 C 230.280 174.247,239.147 227.965,280.438 237.536 C 327.594 248.467,358.444 186.849,321.207 156.106 C 311.543 148.129,293.557 142.966,284.664 145.618 M112.904 184.901 C 118.958 187.430,119.231 195.682,113.361 198.718 C 106.195 202.423,99.113 193.357,104.331 187.156 C 106.959 184.033,109.332 183.408,112.904 184.901 M142.410 263.595 C 164.144 266.318,184.588 277.379,196.081 292.631 C 200.666 298.716,199.960 298.716,204.545 292.631 C 216.112 277.280,236.696 266.201,258.529 263.575 C 264.778 262.823,338.027 262.140,351.017 262.712 L 359.937 263.105 359.937 284.604 C 359.937 296.429,359.775 306.103,359.576 306.103 C 359.377 306.103,352.546 303.604,344.396 300.549 C 328.713 294.672,320.565 292.074,309.859 289.540 C 267.228 279.448,224.266 290.220,208.374 314.987 L 206.442 317.997 200.313 317.997 L 194.184 317.997 192.252 314.987 C 176.360 290.220,133.398 279.448,90.767 289.540 C 80.061 292.074,71.913 294.672,56.230 300.549 C 48.080 303.604,41.249 306.103,41.050 306.103 C 40.851 306.103,40.689 296.395,40.689 284.530 L 40.689 262.956 46.792 262.752 C 59.854 262.316,137.675 263.001,142.410 263.595 M141.118 303.296 C 153.690 305.319,165.519 310.027,173.662 316.249 C 179.853 320.980,179.904 321.145,176.186 324.374 C 174.479 325.857,171.642 328.599,169.880 330.467 L 166.677 333.865 160.803 332.211 C 135.998 325.226,104.908 324.908,66.172 331.244 C 52.677 333.452,53.714 333.683,49.650 327.565 C 46.306 322.531,46.604 322.082,55.399 318.889 C 59.531 317.389,64.319 315.818,66.041 315.397 C 67.762 314.976,69.452 314.440,69.797 314.207 C 71.418 313.108,92.661 306.612,99.531 305.115 C 112.462 302.296,130.109 301.524,141.118 303.296 M288.592 302.993 C 295.278 303.807,304.238 305.690,311.111 307.726 C 318.888 310.029,330.106 313.717,330.829 314.207 C 331.174 314.440,332.864 314.976,334.585 315.397 C 336.307 315.818,341.095 317.389,345.227 318.889 C 354.022 322.082,354.320 322.531,350.976 327.565 C 346.912 333.683,347.949 333.452,334.454 331.244 C 295.718 324.908,264.628 325.226,239.823 332.211 L 233.949 333.865 230.746 330.467 C 228.984 328.599,226.146 325.857,224.440 324.374 C 220.722 321.146,220.772 320.984,226.964 316.241 C 241.269 305.283,265.179 300.143,288.592 302.993 M210.142 333.743 C 218.800 335.924,222.164 345.293,216.177 350.551 L 214.041 352.426 200.313 352.426 L 186.585 352.426 184.449 350.551 C 179.845 346.508,180.027 341.772,184.970 337.012 C 188.895 333.232,201.574 331.586,210.142 333.743 M137.743 336.173 C 146.099 337.192,161.290 340.737,162.504 341.951 C 162.675 342.122,162.640 342.961,162.426 343.815 L 162.036 345.368 158.004 344.523 C 137.218 340.165,105.606 340.078,81.448 344.311 L 70.698 346.195 68.213 344.198 C 64.165 340.945,64.608 340.652,76.995 338.384 C 98.963 334.364,117.395 333.693,137.743 336.173 M305.790 335.891 C 315.292 336.814,330.904 339.430,333.490 340.531 C 335.434 341.359,335.276 341.897,332.413 344.198 L 329.928 346.195 319.178 344.311 C 295.020 340.078,263.408 340.165,242.622 344.523 L 238.590 345.368 238.200 343.815 C 237.687 341.770,237.380 341.947,245.627 339.548 C 261.866 334.825,282.141 333.593,305.790 335.891 "
              stroke="none"
              fill="#1567A4"
              fill-rule="evenodd"></path>
    </g>
</svg>
